<svg width="200" height="129" viewBox="0 0 200 129" fill="none" xmlns="http://www.w3.org/2000/svg">
<path d="M144.62 36.7612C92.2329 86.6903 61.6474 101.258 3.34955 85.8841C-5.60122 106.68 4.3659 126.876 21.6436 127.893C38.9212 128.909 138.522 129.586 156.816 127.893C175.11 126.199 189 114.003 189 95.0311C189 76.0595 176.43 65.492 154.106 62.8472C154.101 51.4342 151.645 45.8496 144.62 36.7612Z" fill="#019FDC"/>
<path d="M44.0409 37.0995C20.3264 41.8424 20.3264 73.3487 20.3264 73.3487C73.0333 79.7388 99.9269 72.2428 141.948 34.0505C141.948 34.0505 129.074 19.8218 110.441 19.8218C87.0657 19.8218 74.5309 39.8097 74.5309 39.8097C74.5309 39.8097 67.7553 32.3565 44.0409 37.0995Z" fill="#E12379"/>
<path d="M160.243 18.363L156.219 41.9678L136.729 22.8891L160.243 18.363Z" fill="#019FDC"/>
<path d="M167.592 11.0151L163.568 34.6199L144.078 15.5411L167.592 11.0151Z" fill="#E12379"/>
</svg>
